<?xml version="1.0" encoding="utf-8"?>
<!-- Generator: Adobe Illustrator 24.0.2, SVG Export Plug-In . SVG Version: 6.00 Build 0)  -->
<svg version="1.1" id="Capa_1" xmlns="http://www.w3.org/2000/svg" xmlns:xlink="http://www.w3.org/1999/xlink" x="0px" y="0px"
	 viewBox="0 0 100 30" style="enable-background:new 0 0 100 30;" xml:space="preserve">
<style type="text/css">
	.st0{fill:#FF6784;}
	.st1{fill:#FE8D7B;}
	.st2{fill:#FFB68C;}
	.st3{fill:#C7DAC7;}
	.st4{fill:#55CBD4;}
</style>
<path id="Fill-1" class="st0" d="M0,0.8C0,0.4,0.3,0,0.7,0h9.2c7.5,0,13.6,6.7,13.6,14.9c0,8.3-6.1,15-13.6,15H0.7
	c-0.4,0-0.7-0.4-0.7-0.8V0.8z M9.4,24.7c5,0,8.7-4.2,8.7-9.8s-3.7-9.8-8.7-9.8H5v19.6H9.4z"/>
<path id="Fill-3" class="st1" d="M27.4,6.7v-1c0-0.3,0.3-0.5,0.8-0.5h10.2c0.4,0,0.8,0.2,0.8,0.5v1c0,0.3-0.3,0.5-0.8,0.5H28.2
	C27.8,7.2,27.4,7,27.4,6.7"/>
<path id="Fill-5" class="st1" d="M32.7,12.4c-4.8,0-8.2,4.1-8.2,8.8c0,4.8,3.4,8.8,8.2,8.8c2.6,0,4.6-1,6-2.3c0.4-0.3,0.3-0.8,0-1.1
	l-1.6-2c-0.3-0.3-0.6-0.2-1,0c-0.7,0.5-1.9,1.1-3.1,1.1c-2.3,0-3.7-1.9-3.8-3.6h10.3c0.4,0,0.7-0.3,0.8-0.7c0-0.3,0.1-0.8,0.1-1.1
	C40.2,15.7,36.8,12.4,32.7,12.4z M29.4,19.1c0.2-1.6,1.5-2.8,3.1-2.8c1.5,0,2.8,1.3,2.9,2.8C35.4,19.1,29.4,19.1,29.4,19.1z"/>
<path id="Fill-7" class="st2" d="M42.1,13.6c0-0.5,0.3-0.8,0.7-0.8h1.5c0.3,0,0.6,0.2,0.7,0.5l0.5,1.6c0.7-0.8,2.5-2.5,5.3-2.5
	c2.3,0,3.8,0.9,5.2,2.7c0.7-0.8,2.7-2.7,5.6-2.7c5.1,0,6.9,4.1,6.9,8.6v8.2c0,0.4-0.3,0.8-0.7,0.8h-3.2c-0.4,0-0.7-0.4-0.7-0.8v-8.5
	c0-2.2-1-3.6-3-3.6c-2.3,0-3.3,1.8-3.3,1.8s0,0.9,0,1.6v8.7c0,0.4-0.3,0.8-0.7,0.8h-3c-0.4,0-0.7-0.4-0.7-0.8v-8.5
	c0-2.2-0.9-3.6-2.9-3.6s-2.9,1.5-3.3,2.7v9.4c0,0.4-0.3,0.8-0.7,0.8h-3.2c-0.4,0-0.7-0.4-0.7-0.8L42.1,13.6L42.1,13.6z"/>
<path id="Fill-9" class="st3" d="M78.9,12.4c4.6,0,8.3,4,8.3,8.7c0,4.9-3.7,8.9-8.3,8.9s-8.3-4-8.3-8.8S74.3,12.4,78.9,12.4
	 M78.9,25.5c2.1,0,3.9-1.9,3.9-4.3c0-2.3-1.7-4.2-3.9-4.2c-2.2,0-3.9,1.9-3.9,4.2S76.7,25.5,78.9,25.5"/>
<path id="Fill-11" class="st4" d="M88.4,27.5l1-2.3c0.2-0.3,0.6-0.4,1-0.2c0,0,1.7,1,3.5,1c0.8,0,1.3-0.3,1.3-1.1
	c0-0.8-0.5-1.2-2.6-2.1c-3-1.2-4.4-3-4.4-5.5s1.8-4.9,5.7-4.9c2.3,0,4,0.7,4.8,1.3c0.3,0.2,0.5,0.7,0.3,1.1l-1,2.1
	c-0.2,0.4-0.6,0.4-0.9,0.3c0,0-1.7-0.9-3.2-0.9c-0.9,0-1.3,0.4-1.3,1c0,0.8,0.7,1,2.1,1.6c3,1.2,5.2,2.6,5.2,5.9
	c0,2.8-2.2,5.1-6.2,5.1c-2.6,0-4.3-0.9-5.2-1.5C88.4,28.2,88.2,27.9,88.4,27.5"/>
</svg>
